<svg xmlns="http://www.w3.org/2000/svg" version="1.1" viewBox="1.75 1.1892857551574707 431.5421142578125 424.040771484375" width="435.00" height="427.00">
<g stroke-width="2.00" fill="none" stroke-linecap="butt">
<path stroke="#5aa9ea" d="&#10;  M 327.24 112.84&#10;  Q 327.02 112.69 327.00 111.97&#10;  Q 326.99 111.48 326.58 111.22&#10;  Q 325.27 110.37 324.24 108.90&#10;  C 323.86 108.35 323.20 108.07 322.71 107.56&#10;  Q 319.24 103.88 315.33 98.53&#10;  Q 313.30 95.75 310.74 93.29&#10;  Q 308.01 90.64 305.57 88.30&#10;  Q 304.44 87.22 303.16 86.56&#10;  Q 301.25 85.57 300.32 83.51&#10;  A 1.78 1.73 -84.2 0 0 299.75 82.79&#10;  Q 299.27 82.43 298.79 82.06&#10;  Q 298.13 81.54 297.69 80.80&#10;  Q 296.50 78.77 294.78 77.27&#10;  C 294.08 76.66 293.85 75.92 293.18 75.22&#10;  Q 287.39 69.17 280.89 63.20&#10;  Q 280.39 62.74 279.69 62.71&#10;  Q 279.21 62.69 278.92 62.30&#10;  Q 277.26 60.10 275.11 58.23&#10;  Q 274.89 58.04 274.79 57.77&#10;  Q 274.72 57.60 274.70 57.43&#10;  Q 274.67 57.20 274.54 57.01&#10;  Q 271.02 51.64 265.01 48.07&#10;  Q 263.20 46.99 263.20 45.25&#10;  Q 263.20 44.73 262.75 44.98&#10;  L 262.28 45.23"/>
<path stroke="#70c2be" d="&#10;  M 293.03 148.29&#10;  Q 292.69 148.05 292.37 148.04&#10;  Q 292.01 148.02 292.08 147.66&#10;  Q 292.22 146.98 291.67 146.33&#10;  Q 286.31 140.08 281.77 134.39&#10;  Q 279.79 131.90 277.30 129.20&#10;  Q 275.02 126.72 272.65 124.18&#10;  Q 269.04 120.32 264.68 115.95&#10;  C 263.95 115.22 263.97 114.51 263.26 113.84&#10;  Q 261.70 112.37 260.06 110.75&#10;  Q 256.77 107.54 253.62 104.41&#10;  Q 251.84 102.64 250.22 100.71&#10;  Q 248.63 98.82 246.82 96.92&#10;  Q 244.29 94.27 241.81 91.24&#10;  Q 236.50 84.76 229.72 79.22"/>
<path stroke="#84cd9c" d="&#10;  M 278.26 163.44&#10;  Q 278.07 163.32 278.28 162.87&#10;  Q 278.62 162.15 277.84 162.09&#10;  Q 277.43 162.06 277.42 161.61&#10;  Q 277.40 161.06 277.01 160.67&#10;  Q 275.61 159.25 274.60 157.61&#10;  C 273.47 155.77 271.86 154.75 270.54 153.10&#10;  Q 262.77 143.45 252.15 133.42&#10;  Q 251.35 132.66 250.74 131.78&#10;  Q 250.14 130.92 249.08 131.13&#10;  Q 248.42 131.26 248.58 130.60&#10;  Q 248.66 130.27 248.62 129.94&#10;  Q 248.57 129.46 248.17 129.18&#10;  Q 246.71 128.17 245.63 126.61&#10;  Q 243.87 124.07 241.23 121.65&#10;  Q 238.92 119.54 236.90 117.05&#10;  Q 234.71 114.35 232.18 111.58&#10;  Q 229.93 109.12 227.49 106.08&#10;  Q 222.16 99.44 215.94 93.62"/>
<path stroke="#9ddb81" d="&#10;  M 265.58 176.46&#10;  Q 262.79 170.94 258.02 166.48&#10;  Q 257.89 166.35 257.78 166.06&#10;  Q 257.59 165.54 257.19 165.15&#10;  Q 244.77 153.12 232.44 140.57&#10;  Q 232.35 140.47 232.38 140.34&#10;  Q 232.39 140.28 232.38 140.22&#10;  Q 232.35 140.10 232.26 140.00&#10;  Q 227.05 134.91 222.41 129.17&#10;  Q 221.68 128.27 220.83 127.53&#10;  C 219.37 126.27 218.59 124.50 217.20 123.13&#10;  Q 213.60 119.61 211.36 116.89&#10;  Q 206.62 111.09 202.06 108.36"/>
<path stroke="#bcde61" d="&#10;  M 230.47 213.22&#10;  Q 229.42 210.35 227.59 208.65&#10;  Q 226.11 207.28 225.72 206.77&#10;  C 224.29 204.93 223.25 203.11 221.47 201.64&#10;  Q 219.78 200.24 218.02 198.59&#10;  Q 217.61 198.20 217.64 197.64&#10;  Q 217.70 196.78 216.85 196.86&#10;  Q 216.50 196.90 216.14 196.90&#10;  Q 215.64 196.91 215.30 196.53&#10;  Q 213.61 194.63 212.09 192.67&#10;  Q 210.75 190.94 208.85 189.20&#10;  Q 205.03 185.70 201.96 181.85&#10;  Q 201.87 181.73 201.85 181.59&#10;  Q 201.83 181.45 201.84 181.32&#10;  Q 201.85 181.19 201.76 181.10&#10;  Q 192.72 172.25 186.26 163.59&#10;  Q 183.93 160.46 182.03 157.15&#10;  Q 181.15 155.61 179.87 154.37&#10;  Q 177.54 152.11 176.34 149.38&#10;  Q 175.77 148.07 174.73 146.99&#10;  Q 173.79 146.01 172.88 145.02&#10;  Q 171.32 143.34 169.89 141.17"/>
<path stroke="#d5d142" d="&#10;  M 213.25 231.05&#10;  Q 212.64 231.21 212.04 231.01&#10;  Q 211.71 230.91 211.66 230.57&#10;  Q 211.49 229.28 210.80 228.12&#10;  Q 210.39 227.43 209.84 226.89&#10;  Q 203.24 220.44 197.53 213.48&#10;  Q 196.93 212.75 196.58 211.86&#10;  Q 196.22 210.97 195.45 210.28&#10;  Q 192.84 207.96 190.34 205.61&#10;  Q 188.91 204.27 185.80 200.36&#10;  Q 183.81 197.86 180.72 195.01&#10;  Q 177.54 192.07 170.46 184.96&#10;  C 168.49 182.98 166.80 180.79 165.14 178.51&#10;  Q 163.26 175.92 161.09 173.86&#10;  Q 156.67 169.65 153.25 164.34&#10;  Q 153.19 164.24 153.22 164.12&#10;  Q 153.24 164.07 153.29 164.06&#10;  Q 153.56 164.03 153.41 163.77&#10;  Q 152.36 162.04 150.98 160.41"/>
<path stroke="#efbd23" d="&#10;  M 192.49 252.06&#10;  Q 191.62 248.85 189.58 246.50&#10;  Q 189.32 246.20 189.22 245.81&#10;  Q 189.11 245.37 188.71 245.22&#10;  Q 188.28 245.05 187.99 244.68&#10;  Q 187.26 243.75 186.63 242.70&#10;  Q 185.98 241.62 185.18 240.71&#10;  Q 179.20 233.87 173.00 227.12&#10;  Q 171.12 225.07 169.44 223.02&#10;  Q 167.67 220.85 165.70 218.73&#10;  Q 162.84 215.65 161.22 212.57&#10;  Q 160.96 212.08 160.90 211.51&#10;  Q 160.85 210.99 160.53 210.57&#10;  Q 158.19 207.53 155.05 204.57&#10;  Q 153.54 203.15 152.39 201.73&#10;  Q 151.23 200.29 149.88 198.86&#10;  Q 148.87 197.78 147.69 195.43&#10;  Q 146.65 193.35 144.98 192.27&#10;  Q 144.59 192.01 144.40 191.58&#10;  Q 143.89 190.40 143.02 189.46&#10;  Q 142.12 188.49 141.60 187.16&#10;  Q 140.48 184.34 139.68 181.33&#10;  Q 139.34 180.03 139.88 178.33&#10;  Q 140.05 177.81 139.81 177.32&#10;  Q 139.13 175.87 137.65 175.04"/>
<path stroke="#ffa017" d="&#10;  M 170.34 274.59&#10;  L 167.42 273.72&#10;  Q 166.96 273.58 166.53 273.80&#10;  Q 165.03 274.54 163.10 274.61&#10;  Q 162.71 274.62 162.46 274.91&#10;  Q 162.38 275.01 162.31 275.12&#10;  Q 161.99 275.66 162.18 275.06&#10;  Q 162.20 274.99 162.25 274.93&#10;  Q 162.41 274.74 162.48 274.49&#10;  Q 163.15 272.24 163.67 270.12&#10;  C 163.94 269.01 163.78 267.42 163.34 266.37&#10;  Q 162.03 263.24 159.84 260.11&#10;  C 158.55 258.27 156.78 257.38 155.67 255.43&#10;  Q 155.43 255.00 155.22 255.44&#10;  Q 155.16 255.56 154.98 255.56&#10;  Q 154.84 255.57 154.76 255.45&#10;  Q 153.35 253.17 150.88 252.89&#10;  Q 150.28 252.83 150.60 253.34&#10;  Q 150.75 253.59 151.00 253.73&#10;  Q 151.85 254.24 150.86 254.27&#10;  Q 149.90 254.31 148.95 254.65&#10;  Q 148.53 254.80 148.11 254.66&#10;  Q 146.86 254.27 146.38 255.57&#10;  A 0.52 0.52 0.0 0 1 145.51 255.75&#10;  Q 145.02 255.23 144.68 255.81&#10;  Q 144.45 256.19 144.08 255.95&#10;  L 141.58 254.34&#10;  Q 141.10 254.04 140.89 254.56&#10;  L 139.84 257.09&#10;  Q 139.66 257.53 139.31 257.20&#10;  Q 139.21 257.11 139.13 256.98&#10;  Q 138.65 256.16 138.40 257.08&#10;  Q 138.30 257.45 138.37 257.82&#10;  Q 138.60 258.90 138.18 257.89&#10;  Q 137.73 256.82 137.97 255.80&#10;  Q 138.16 254.97 137.32 255.10&#10;  Q 137.16 255.13 136.99 255.05&#10;  Q 136.63 254.88 136.55 254.49&#10;  Q 136.51 254.25 136.35 254.05&#10;  Q 135.79 253.34 135.71 254.24&#10;  Q 135.64 254.95 135.23 255.23"/>
<path stroke="#b67a83" d="&#10;  M 135.24 250.95&#10;  L 135.23 255.23"/>
<path stroke="#b66987" d="&#10;  M 135.23 255.23&#10;  L 135.24 287.49"/>
<path stroke="#773feb" d="&#10;  M 135.24 287.49&#10;  L 134.65 285.55&#10;  Q 134.60 285.39 134.48 285.28&#10;  Q 134.26 285.07 134.13 285.22&#10;  Q 133.88 285.51 133.61 285.23&#10;  C 132.73 284.32 131.56 284.05 130.64 283.10&#10;  Q 127.46 279.79 124.38 276.31&#10;  Q 121.40 272.97 118.06 270.12&#10;  Q 118.00 270.08 117.94 270.10&#10;  Q 117.77 270.16 117.59 270.15&#10;  Q 117.31 270.13 117.11 269.93&#10;  Q 113.71 266.42 110.52 263.63&#10;  A 29.47 0.83 41.7 0 1 107.41 260.87&#10;  Q 104.50 258.28 101.88 255.38&#10;  Q 101.77 255.26 101.62 255.18&#10;  Q 101.47 255.11 101.31 255.14&#10;  Q 100.75 255.22 100.32 254.84&#10;  Q 97.95 252.73 95.40 250.99&#10;  Q 93.06 249.40 90.72 247.31&#10;  Q 76.54 234.67 63.23 220.47&#10;  Q 62.84 220.05 62.30 219.85&#10;  C 61.30 219.47 61.13 218.51 60.67 218.00&#10;  Q 52.65 209.11 43.98 200.85&#10;  Q 41.91 198.88 39.66 197.21&#10;  Q 37.45 195.57 35.21 193.59&#10;  Q 32.69 191.35 29.85 189.42&#10;  C 28.57 188.55 28.00 187.35 26.96 186.28&#10;  Q 26.59 185.89 26.34 185.40&#10;  Q 26.01 184.75 25.32 184.49&#10;  Q 24.83 184.31 24.56 183.85&#10;  Q 23.34 181.75 21.53 180.49&#10;  Q 19.92 179.38 18.81 177.53&#10;  A 1.96 1.95 -2.7 0 0 17.99 176.79&#10;  Q 17.22 176.42 16.66 175.76&#10;  Q 16.00 174.97 15.14 174.26&#10;  Q 10.66 170.60 6.40 166.67&#10;  Q 6.03 166.34 5.55 166.21&#10;  Q 4.16 165.85 2.90 165.06&#10;  Q 2.47 164.79 2.35 165.29&#10;  L 1.75 167.72"/>
<path stroke="#5473ff" d="&#10;  M 86.80 117.92&#10;  Q 88.78 120.17 91.16 121.98&#10;  Q 94.14 124.25 95.59 125.84&#10;  Q 107.35 138.80 114.93 148.53&#10;  Q 117.75 152.14 119.86 156.41&#10;  A 0.70 0.70 0.0 0 0 120.78 156.74&#10;  Q 120.87 156.70 121.12 156.46"/>
<path stroke="#ac8189" d="&#10;  M 135.30 176.94&#10;  L 135.24 250.95"/>
<path stroke="#634af9" d="&#10;  M 135.24 250.95&#10;  Q 134.84 252.59 134.95 254.29&#10;  Q 134.96 254.42 134.82 254.44&#10;  L 134.82 254.44&#10;  Q 134.68 254.45 134.67 254.31&#10;  Q 134.22 250.17 132.89 246.48&#10;  C 132.53 245.46 131.56 245.01 130.58 244.84&#10;  Q 130.22 244.78 130.10 244.43&#10;  Q 129.78 243.44 128.84 242.95&#10;  Q 127.64 242.31 126.75 241.29&#10;  Q 118.11 231.29 108.75 221.39&#10;  Q 105.05 217.49 101.25 215.32&#10;  Q 100.20 214.72 99.39 213.82&#10;  Q 96.87 211.04 93.84 209.09&#10;  A 1.63 1.62 63.7 0 0 93.05 208.82&#10;  Q 92.24 208.76 91.88 208.07&#10;  Q 91.74 207.79 91.53 207.55&#10;  L 62.33 174.17&#10;  Q 62.25 174.08 62.16 174.14&#10;  Q 62.04 174.22 62.06 174.35&#10;  Q 62.15 174.95 61.67 174.59&#10;  Q 60.30 173.55 59.49 172.18&#10;  Q 58.42 170.36 57.93 169.78&#10;  Q 57.07 168.74 56.17 167.52&#10;  Q 55.90 167.16 55.48 167.04&#10;  C 54.43 166.74 53.84 165.32 53.22 164.47&#10;  Q 52.93 164.07 52.44 164.00&#10;  Q 52.05 163.94 51.99 163.54&#10;  Q 51.92 163.16 51.66 162.86&#10;  C 50.24 161.28 48.97 159.61 47.35 158.22&#10;  Q 44.55 155.82 41.88 153.63&#10;  Q 41.34 153.18 40.45 152.81&#10;  C 39.22 152.30 37.86 150.82 36.79 149.95&#10;  C 35.87 149.21 34.66 149.43 33.92 147.92&#10;  Q 33.69 147.46 33.22 147.26&#10;  Q 30.78 146.20 28.75 144.23&#10;  Q 26.81 142.35 24.29 140.87&#10;  Q 23.85 140.60 23.71 140.11&#10;  Q 23.56 139.62 23.13 139.34&#10;  L 8.68 130.17&#10;  A 0.57 0.49 55.1 0 0 8.37 130.09&#10;  Q 7.78 130.12 7.41 129.68&#10;  Q 6.73 128.87 5.69 128.85&#10;  Q 5.17 128.84 4.97 128.35&#10;  Q 4.47 127.13 3.32 127.78&#10;  Q 2.82 128.06 2.81 127.49&#10;  Q 2.81 127.36 2.57 127.39&#10;  Q 2.11 127.46 2.04 127.92&#10;  Q 1.98 128.29 1.78 128.47"/>
<path stroke="#c0657e" d="&#10;  M 135.24 287.49&#10;  L 135.34 292.38"/>
<path stroke="#8b38da" d="&#10;  M 121.21 308.46&#10;  Q 121.04 308.52 120.97 308.66&#10;  Q 120.73 309.13 120.65 308.61&#10;  Q 120.63 308.47 120.59 308.34&#10;  Q 120.52 308.11 120.28 308.13&#10;  L 118.78 308.20&#10;  Q 118.26 308.23 117.91 307.85&#10;  Q 115.90 305.65 112.55 303.37&#10;  Q 108.80 300.83 103.01 295.67&#10;  Q 102.72 295.42 103.08 295.57&#10;  Q 103.20 295.62 103.28 295.45&#10;  Q 103.37 295.26 103.23 295.12&#10;  Q 97.15 288.81 89.44 282.12&#10;  Q 88.01 280.88 84.79 277.56&#10;  Q 82.77 275.48 79.84 273.41&#10;  Q 75.84 270.59 72.18 267.33&#10;  Q 71.96 267.13 71.67 267.06&#10;  Q 71.24 266.96 70.89 266.68&#10;  Q 58.42 256.45 47.36 243.51&#10;  Q 46.91 242.98 46.58 242.35&#10;  A 2.17 2.17 0.0 0 0 46.03 241.70&#10;  Q 44.28 240.36 41.55 237.50&#10;  Q 35.73 231.39 28.36 224.43&#10;  C 24.89 221.16 21.09 218.34 17.67 215.00&#10;  C 17.07 214.41 16.27 214.19 15.74 213.62&#10;  C 13.35 211.02 10.72 207.93 7.71 206.04&#10;  Q 4.81 204.23 2.73 201.35&#10;  Q 2.66 201.26 2.60 201.35&#10;  Q 2.52 201.46 2.50 201.58&#10;  Q 2.40 202.23 2.36 201.58&#10;  Q 2.34 201.22 2.26 200.89&#10;  Q 2.07 200.08 2.00 200.91&#10;  L 1.78 203.71"/>
<path stroke="#9d32ca" d="&#10;  M 121.22 351.72&#10;  Q 121.18 350.42 120.83 350.23&#10;  Q 120.49 350.04 120.56 350.42&#10;  Q 120.71 351.25 120.01 351.62&#10;  Q 119.64 351.81 119.29 351.57&#10;  Q 118.52 351.05 117.67 351.31&#10;  Q 117.61 351.33 117.61 351.26&#10;  Q 117.60 351.17 117.68 351.10&#10;  A 0.09 0.09 0.0 0 0 117.67 350.96&#10;  Q 111.89 347.24 107.66 343.34&#10;  Q 105.32 341.19 99.55 335.52&#10;  Q 98.63 334.62 97.76 333.60&#10;  Q 95.80 331.32 93.47 330.35&#10;  A 0.67 0.67 0.0 0 1 93.09 329.50&#10;  Q 93.44 328.55 92.58 328.10&#10;  Q 92.25 327.92 91.98 327.65&#10;  Q 74.65 310.24 55.46 292.43&#10;  Q 48.52 285.99 42.45 280.80&#10;  Q 42.23 280.61 41.96 280.54&#10;  Q 41.48 280.41 41.17 280.02&#10;  Q 40.23 278.81 38.91 278.08&#10;  A 2.03 2.02 88.7 0 1 38.16 277.36&#10;  Q 37.22 275.85 35.78 274.70&#10;  Q 34.17 273.41 32.75 271.68&#10;  Q 31.59 270.25 30.06 268.85&#10;  C 26.44 265.55 23.41 261.86 19.73 258.50&#10;  C 18.43 257.31 16.90 256.55 15.67 255.27&#10;  Q 14.28 253.81 12.56 252.71&#10;  Q 9.81 250.97 7.72 248.43&#10;  Q 7.04 247.60 6.15 247.00&#10;  C 5.84 246.79 5.48 246.33 5.40 245.96&#10;  A 1.00 0.98 5.5 0 0 4.82 245.27&#10;  Q 3.69 244.80 3.02 245.72&#10;  Q 2.77 246.06 2.87 245.66&#10;  Q 2.88 245.61 2.87 245.56&#10;  Q 2.78 245.16 2.44 245.44&#10;  Q 2.13 245.69 1.77 245.98"/>
<path stroke="#af2cb9" d="&#10;  M 121.18 381.48&#10;  L 120.44 378.84&#10;  Q 120.28 378.27 119.83 378.65&#10;  Q 119.02 379.36 118.17 378.52&#10;  Q 117.79 378.15 117.81 378.68&#10;  Q 117.81 378.93 117.38 378.79&#10;  Q 117.13 378.70 116.99 378.48&#10;  Q 116.89 378.32 116.88 378.14&#10;  Q 116.87 377.39 116.28 377.85&#10;  Q 115.99 378.07 115.65 378.06&#10;  Q 115.25 378.06 114.92 377.81&#10;  Q 106.99 371.79 100.22 365.24&#10;  Q 98.24 363.33 96.20 361.64&#10;  Q 95.88 361.37 95.46 361.37&#10;  L 93.51 361.37&#10;  Q 92.92 361.37 92.94 360.78&#10;  Q 93.02 358.85 91.41 357.41&#10;  Q 87.21 353.65 83.13 350.03&#10;  Q 83.11 350.02 83.11 349.99&#10;  Q 83.10 349.86 83.13 349.74&#10;  Q 83.19 349.45 82.98 349.24&#10;  Q 79.59 346.00 76.05 342.48&#10;  Q 72.81 339.26 69.31 336.27&#10;  Q 65.97 333.40 62.48 330.16&#10;  Q 61.82 329.55 61.89 328.65&#10;  A 0.32 0.32 0.0 0 0 61.47 328.32&#10;  C 60.48 328.64 59.77 328.20 59.21 327.42&#10;  Q 58.18 325.98 56.87 324.84&#10;  Q 54.50 322.78 54.26 322.54&#10;  Q 50.52 318.83 47.16 315.80&#10;  Q 45.03 313.87 42.81 311.24&#10;  Q 40.71 308.75 37.71 306.31&#10;  Q 35.68 304.66 34.11 302.42&#10;  C 33.22 301.16 31.88 300.24 30.64 299.35&#10;  Q 29.36 298.44 28.32 296.79&#10;  Q 27.02 294.74 25.52 292.99&#10;  Q 25.22 292.65 24.84 292.45&#10;  Q 24.32 292.17 23.91 291.84&#10;  Q 17.72 286.79 12.18 281.59&#10;  Q 12.09 281.50 12.16 281.35&#10;  Q 12.19 281.27 12.09 281.16&#10;  L 6.65 275.59&#10;  Q 6.40 275.33 6.04 275.26&#10;  Q 5.58 275.17 5.57 274.71&#10;  Q 5.55 273.97 4.82 273.84&#10;  Q 4.15 273.72 3.68 273.23&#10;  Q 3.32 272.85 2.82 272.99&#10;  Q 2.22 273.16 1.75 273.05"/>
<path stroke="#c527a5" d="&#10;  M 93.06 423.96&#10;  L 86.52 423.44&#10;  Q 86.07 423.40 85.65 423.24&#10;  Q 85.33 423.12 84.97 423.01&#10;  Q 84.22 422.78 85.00 422.67&#10;  Q 85.14 422.66 85.28 422.65&#10;  Q 86.12 422.59 85.54 421.99&#10;  Q 85.34 421.77 85.03 421.75&#10;  Q 84.49 421.71 84.16 421.29&#10;  Q 83.42 420.38 82.92 419.32&#10;  C 82.66 418.77 82.30 418.51 81.75 418.33&#10;  Q 81.35 418.20 81.43 417.79&#10;  Q 81.54 417.22 80.94 417.15&#10;  Q 80.21 417.07 79.80 416.46&#10;  C 78.96 415.19 77.42 414.74 76.30 413.60&#10;  Q 75.11 412.39 73.68 411.47&#10;  Q 71.96 410.36 70.81 409.31&#10;  Q 65.86 404.82 60.97 400.40&#10;  Q 56.90 396.72 53.18 392.96&#10;  Q 50.07 389.82 46.80 386.63&#10;  Q 45.80 385.66 44.71 384.81&#10;  C 43.56 383.90 42.36 382.46 40.99 382.02&#10;  A 1.50 1.49 -4.6 0 1 40.14 381.30&#10;  Q 39.62 380.30 38.59 379.72&#10;  Q 37.55 379.13 36.81 378.12&#10;  Q 34.64 375.11 32.04 372.41&#10;  Q 31.15 371.48 30.58 370.24&#10;  Q 29.98 368.91 28.95 367.65&#10;  Q 27.60 366.02 26.33 364.16&#10;  C 24.90 362.08 23.10 360.30 21.73 358.16&#10;  Q 20.31 355.96 18.48 354.01&#10;  Q 18.38 353.91 18.37 353.78&#10;  Q 18.35 353.65 18.39 353.52&#10;  Q 18.45 353.33 18.32 353.18&#10;  Q 15.46 349.70 12.84 346.11&#10;  Q 11.72 344.56 10.28 343.25&#10;  C 8.52 341.64 7.52 339.73 5.59 338.24&#10;  Q 4.48 337.39 3.63 336.34&#10;  A 0.71 0.70 -53.0 0 0 2.44 336.51&#10;  Q 2.31 336.82 2.36 337.19&#10;  Q 2.38 337.29 2.39 337.19&#10;  Q 2.50 336.03 1.78 334.95"/>
<path stroke="#6ac4c6" d="&#10;  M 282.12 232.78&#10;  Q 281.29 233.26 282.22 234.19&#10;  Q 282.75 234.72 282.01 234.85&#10;  Q 280.44 235.13 279.99 236.40&#10;  Q 279.77 236.99 279.21 236.71&#10;  Q 278.91 236.56 278.60 236.70&#10;  Q 278.11 236.92 277.78 237.35&#10;  Q 277.52 237.70 277.08 237.63&#10;  Q 276.56 237.55 276.14 237.88&#10;  L 274.18 239.42&#10;  Q 273.76 239.75 273.24 239.87&#10;  Q 272.40 240.06 272.21 241.03&#10;  Q 272.05 241.81 271.25 241.87&#10;  Q 270.82 241.91 270.87 242.43&#10;  A 0.94 0.93 75.4 0 1 270.31 243.40&#10;  Q 268.88 244.02 267.57 245.36&#10;  Q 261.99 251.09 256.45 256.39&#10;  Q 254.92 257.86 253.13 259.17&#10;  Q 252.67 259.51 252.57 260.07&#10;  Q 252.46 260.71 251.76 260.74&#10;  A 1.06 1.05 20.4 0 0 251.05 261.06&#10;  L 249.57 262.59&#10;  Q 249.29 262.87 248.90 262.84&#10;  Q 248.59 262.81 248.58 263.25&#10;  A 0.73 0.71 -17.1 0 1 248.27 263.82&#10;  Q 244.84 266.20 241.80 269.47&#10;  Q 240.76 270.59 239.52 271.53&#10;  Q 238.27 272.48 237.13 273.52&#10;  Q 230.09 279.88 223.55 286.53&#10;  C 222.77 287.33 221.93 287.69 221.32 288.69&#10;  Q 220.70 289.70 219.83 290.48&#10;  Q 215.28 294.58 211.53 299.34&#10;  Q 211.23 299.72 211.04 300.16&#10;  Q 210.84 300.64 210.36 300.90&#10;  Q 209.85 301.18 209.54 301.67&#10;  Q 208.44 303.38 206.94 304.91&#10;  Q 205.78 306.11 204.59 307.93&#10;  Q 203.26 309.99 201.61 310.45"/>
<path stroke="#5fb5e1" d="&#10;  M 310.28 268.06&#10;  Q 308.87 268.43 309.10 269.97&#10;  Q 309.21 270.73 308.45 270.83&#10;  L 307.88 270.90&#10;  Q 307.34 270.97 306.98 271.38&#10;  Q 305.78 272.73 304.66 273.96&#10;  Q 303.62 275.10 302.09 275.96&#10;  Q 300.43 276.90 298.78 278.00&#10;  Q 297.04 279.16 295.82 280.62&#10;  Q 293.75 283.09 291.86 284.86&#10;  Q 290.08 286.52 288.62 288.47&#10;  Q 285.25 292.93 281.37 296.75&#10;  Q 281.22 296.90 281.02 296.92&#10;  Q 280.87 296.94 280.77 297.05&#10;  Q 278.53 299.51 276.23 301.85&#10;  Q 274.20 303.92 271.71 305.59&#10;  Q 269.09 307.35 266.83 309.43&#10;  Q 258.95 316.67 251.30 323.12&#10;  C 250.60 323.71 250.37 324.45 249.41 324.70&#10;  A 1.55 1.51 -73.8 0 0 248.79 325.05&#10;  L 246.00 327.68&#10;  Q 245.59 328.06 245.04 328.14&#10;  Q 243.75 328.31 242.94 329.46&#10;  Q 242.22 330.48 241.29 331.29&#10;  Q 236.59 335.36 231.78 339.28&#10;  Q 231.20 339.75 230.73 340.35&#10;  Q 230.24 340.97 229.86 341.66&#10;  Q 229.60 342.15 229.05 342.06&#10;  Q 228.04 341.90 227.40 342.75"/>
<path stroke="#54a1f7" d="&#10;  M 335.81 300.75&#10;  Q 335.58 300.80 335.81 301.33&#10;  Q 336.14 302.10 335.34 301.86&#10;  Q 334.72 301.68 334.60 302.37&#10;  A 1.03 0.96 72.7 0 1 334.36 302.87&#10;  L 332.03 305.56&#10;  A 1.20 1.19 70.0 0 0 331.74 306.19&#10;  Q 331.65 306.85 330.96 306.87&#10;  A 0.90 0.89 15.6 0 0 330.26 307.26&#10;  Q 327.29 311.59 323.33 315.51&#10;  Q 323.09 315.74 323.03 316.07&#10;  Q 323.01 316.21 322.95 316.34&#10;  Q 322.85 316.55 322.68 316.68&#10;  Q 321.25 317.82 320.24 319.28&#10;  Q 318.46 321.84 316.60 324.21&#10;  C 315.89 325.12 315.02 325.55 314.63 326.65&#10;  Q 314.45 327.17 314.02 327.51&#10;  Q 312.17 329.01 310.96 331.00&#10;  Q 309.78 332.93 308.03 334.66&#10;  Q 304.68 337.95 300.60 342.59&#10;  Q 300.28 342.96 299.80 343.17&#10;  Q 299.23 343.41 298.92 343.95&#10;  Q 298.38 344.91 297.32 345.29&#10;  Q 297.13 345.36 297.05 345.55&#10;  Q 296.99 345.69 296.95 345.83&#10;  Q 296.82 346.23 296.54 346.54&#10;  Q 293.99 349.40 290.99 351.72&#10;  Q 289.16 353.14 285.72 357.15&#10;  Q 284.67 358.38 283.20 359.21&#10;  Q 282.76 359.46 282.52 359.90&#10;  Q 281.78 361.25 280.01 361.31&#10;  Q 279.70 361.32 279.66 361.63&#10;  Q 279.46 363.41 278.04 364.89&#10;  Q 273.66 369.44 269.83 374.47&#10;  Q 269.55 374.84 269.11 374.98&#10;  Q 268.63 375.14 268.45 375.62&#10;  Q 268.27 376.10 267.77 376.10&#10;  Q 267.51 376.09 267.25 376.11&#10;  Q 266.78 376.13 266.33 376.36&#10;  Q 261.74 378.76 259.19 384.27"/>
<path stroke="#4e84ff" d="&#10;  M 409.98 397.04&#10;  Q 409.97 397.16 409.92 397.31&#10;  Q 409.89 397.40 409.80 397.35&#10;  Q 408.31 396.46 406.71 397.37&#10;  Q 406.43 397.53 406.44 397.85&#10;  Q 406.44 398.28 406.07 398.49&#10;  Q 404.66 399.29 403.90 400.81&#10;  Q 403.60 401.40 402.95 401.27&#10;  Q 401.30 400.97 400.10 402.24&#10;  Q 399.75 402.62 399.23 402.60&#10;  Q 397.33 402.51 395.81 404.02&#10;  Q 395.52 404.31 395.11 404.28&#10;  Q 393.90 404.20 392.78 405.17&#10;  Q 390.52 407.14 388.59 409.33&#10;  Q 386.55 411.65 384.50 413.51&#10;  Q 381.11 416.60 376.63 420.82&#10;  Q 376.03 421.39 375.73 422.29&#10;  Q 375.53 422.90 374.91 422.90&#10;  Q 374.38 422.89 374.30 423.41&#10;  Q 374.27 423.62 374.46 423.67&#10;  Q 375.32 423.92 374.43 423.89&#10;  Q 374.27 423.89 374.24 424.04&#10;  Q 374.19 424.35 373.90 424.21&#10;  Q 373.27 423.92 372.70 424.75"/>
</g>
<path fill="#4f95ff" d="&#10;  M 327.24 112.84&#10;  Q 327.02 112.69 327.00 111.97&#10;  Q 326.99 111.48 326.58 111.22&#10;  Q 325.27 110.37 324.24 108.90&#10;  C 323.86 108.35 323.20 108.07 322.71 107.56&#10;  Q 319.24 103.88 315.33 98.53&#10;  Q 313.30 95.75 310.74 93.29&#10;  Q 308.01 90.64 305.57 88.30&#10;  Q 304.44 87.22 303.16 86.56&#10;  Q 301.25 85.57 300.32 83.51&#10;  A 1.78 1.73 -84.2 0 0 299.75 82.79&#10;  Q 299.27 82.43 298.79 82.06&#10;  Q 298.13 81.54 297.69 80.80&#10;  Q 296.50 78.77 294.78 77.27&#10;  C 294.08 76.66 293.85 75.92 293.18 75.22&#10;  Q 287.39 69.17 280.89 63.20&#10;  Q 280.39 62.74 279.69 62.71&#10;  Q 279.21 62.69 278.92 62.30&#10;  Q 277.26 60.10 275.11 58.23&#10;  Q 274.89 58.04 274.79 57.77&#10;  Q 274.72 57.60 274.70 57.43&#10;  Q 274.67 57.20 274.54 57.01&#10;  Q 271.02 51.64 265.01 48.07&#10;  Q 263.20 46.99 263.20 45.25&#10;  Q 263.20 44.73 262.75 44.98&#10;  L 262.28 45.23&#10;  L 302.99 2.46&#10;  Q 304.10 1.30 305.71 1.30&#10;  Q 365.78 1.29 426.26 1.19&#10;  Q 429.56 1.18 432.98 1.31&#10;  Q 433.51 1.33 433.14 1.71&#10;  L 327.24 112.84&#10;  Z"/>
<path fill="#64bdd4" d="&#10;  M 327.24 112.84&#10;  L 293.03 148.29&#10;  Q 292.69 148.05 292.37 148.04&#10;  Q 292.01 148.02 292.08 147.66&#10;  Q 292.22 146.98 291.67 146.33&#10;  Q 286.31 140.08 281.77 134.39&#10;  Q 279.79 131.90 277.30 129.20&#10;  Q 275.02 126.72 272.65 124.18&#10;  Q 269.04 120.32 264.68 115.95&#10;  C 263.95 115.22 263.97 114.51 263.26 113.84&#10;  Q 261.70 112.37 260.06 110.75&#10;  Q 256.77 107.54 253.62 104.41&#10;  Q 251.84 102.64 250.22 100.71&#10;  Q 248.63 98.82 246.82 96.92&#10;  Q 244.29 94.27 241.81 91.24&#10;  Q 236.50 84.76 229.72 79.22&#10;  L 262.28 45.23&#10;  L 262.75 44.98&#10;  Q 263.20 44.73 263.20 45.25&#10;  Q 263.20 46.99 265.01 48.07&#10;  Q 271.02 51.64 274.54 57.01&#10;  Q 274.67 57.20 274.70 57.43&#10;  Q 274.72 57.60 274.79 57.77&#10;  Q 274.89 58.04 275.11 58.23&#10;  Q 277.26 60.10 278.92 62.30&#10;  Q 279.21 62.69 279.69 62.71&#10;  Q 280.39 62.74 280.89 63.20&#10;  Q 287.39 69.17 293.18 75.22&#10;  C 293.85 75.92 294.08 76.66 294.78 77.27&#10;  Q 296.50 78.77 297.69 80.80&#10;  Q 298.13 81.54 298.79 82.06&#10;  Q 299.27 82.43 299.75 82.79&#10;  A 1.78 1.73 -84.2 0 1 300.32 83.51&#10;  Q 301.25 85.57 303.16 86.56&#10;  Q 304.44 87.22 305.57 88.30&#10;  Q 308.01 90.64 310.74 93.29&#10;  Q 313.30 95.75 315.33 98.53&#10;  Q 319.24 103.88 322.71 107.56&#10;  C 323.20 108.07 323.86 108.35 324.24 108.90&#10;  Q 325.27 110.37 326.58 111.22&#10;  Q 326.99 111.48 327.00 111.97&#10;  Q 327.02 112.69 327.24 112.84&#10;  Z"/>
<path fill="#7cc7a7" d="&#10;  M 229.72 79.22&#10;  Q 236.50 84.76 241.81 91.24&#10;  Q 244.29 94.27 246.82 96.92&#10;  Q 248.63 98.82 250.22 100.71&#10;  Q 251.84 102.64 253.62 104.41&#10;  Q 256.77 107.54 260.06 110.75&#10;  Q 261.70 112.37 263.26 113.84&#10;  C 263.97 114.51 263.95 115.22 264.68 115.95&#10;  Q 269.04 120.32 272.65 124.18&#10;  Q 275.02 126.72 277.30 129.20&#10;  Q 279.79 131.90 281.77 134.39&#10;  Q 286.31 140.08 291.67 146.33&#10;  Q 292.22 146.98 292.08 147.66&#10;  Q 292.01 148.02 292.37 148.04&#10;  Q 292.69 148.05 293.03 148.29&#10;  L 278.26 163.44&#10;  Q 278.07 163.32 278.28 162.87&#10;  Q 278.62 162.15 277.84 162.09&#10;  Q 277.43 162.06 277.42 161.61&#10;  Q 277.40 161.06 277.01 160.67&#10;  Q 275.61 159.25 274.60 157.61&#10;  C 273.47 155.77 271.86 154.75 270.54 153.10&#10;  Q 262.77 143.45 252.15 133.42&#10;  Q 251.35 132.66 250.74 131.78&#10;  Q 250.14 130.92 249.08 131.13&#10;  Q 248.42 131.26 248.58 130.60&#10;  Q 248.66 130.27 248.62 129.94&#10;  Q 248.57 129.46 248.17 129.18&#10;  Q 246.71 128.17 245.63 126.61&#10;  Q 243.87 124.07 241.23 121.65&#10;  Q 238.92 119.54 236.90 117.05&#10;  Q 234.71 114.35 232.18 111.58&#10;  Q 229.93 109.12 227.49 106.08&#10;  Q 222.16 99.44 215.94 93.62&#10;  L 229.72 79.22&#10;  Z"/>
<path fill="#8cd291" d="&#10;  M 215.94 93.62&#10;  Q 222.16 99.44 227.49 106.08&#10;  Q 229.93 109.12 232.18 111.58&#10;  Q 234.71 114.35 236.90 117.05&#10;  Q 238.92 119.54 241.23 121.65&#10;  Q 243.87 124.07 245.63 126.61&#10;  Q 246.71 128.17 248.17 129.18&#10;  Q 248.57 129.46 248.62 129.94&#10;  Q 248.66 130.27 248.58 130.60&#10;  Q 248.42 131.26 249.08 131.13&#10;  Q 250.14 130.92 250.74 131.78&#10;  Q 251.35 132.66 252.15 133.42&#10;  Q 262.77 143.45 270.54 153.10&#10;  C 271.86 154.75 273.47 155.77 274.60 157.61&#10;  Q 275.61 159.25 277.01 160.67&#10;  Q 277.40 161.06 277.42 161.61&#10;  Q 277.43 162.06 277.84 162.09&#10;  Q 278.62 162.15 278.28 162.87&#10;  Q 278.07 163.32 278.26 163.44&#10;  L 265.58 176.46&#10;  Q 262.79 170.94 258.02 166.48&#10;  Q 257.89 166.35 257.78 166.06&#10;  Q 257.59 165.54 257.19 165.15&#10;  Q 244.77 153.12 232.44 140.57&#10;  Q 232.35 140.47 232.38 140.34&#10;  Q 232.39 140.28 232.38 140.22&#10;  Q 232.35 140.10 232.26 140.00&#10;  Q 227.05 134.91 222.41 129.17&#10;  Q 221.68 128.27 220.83 127.53&#10;  C 219.37 126.27 218.59 124.50 217.20 123.13&#10;  Q 213.60 119.61 211.36 116.89&#10;  Q 206.62 111.09 202.06 108.36&#10;  L 215.94 93.62&#10;  Z"/>
<path fill="#ade471" d="&#10;  M 265.58 176.46&#10;  L 230.47 213.22&#10;  Q 229.42 210.35 227.59 208.65&#10;  Q 226.11 207.28 225.72 206.77&#10;  C 224.29 204.93 223.25 203.11 221.47 201.64&#10;  Q 219.78 200.24 218.02 198.59&#10;  Q 217.61 198.20 217.64 197.64&#10;  Q 217.70 196.78 216.85 196.86&#10;  Q 216.50 196.90 216.14 196.90&#10;  Q 215.64 196.91 215.30 196.53&#10;  Q 213.61 194.63 212.09 192.67&#10;  Q 210.75 190.94 208.85 189.20&#10;  Q 205.03 185.70 201.96 181.85&#10;  Q 201.87 181.73 201.85 181.59&#10;  Q 201.83 181.45 201.84 181.32&#10;  Q 201.85 181.19 201.76 181.10&#10;  Q 192.72 172.25 186.26 163.59&#10;  Q 183.93 160.46 182.03 157.15&#10;  Q 181.15 155.61 179.87 154.37&#10;  Q 177.54 152.11 176.34 149.38&#10;  Q 175.77 148.07 174.73 146.99&#10;  Q 173.79 146.01 172.88 145.02&#10;  Q 171.32 143.34 169.89 141.17&#10;  L 202.06 108.36&#10;  Q 206.62 111.09 211.36 116.89&#10;  Q 213.60 119.61 217.20 123.13&#10;  C 218.59 124.50 219.37 126.27 220.83 127.53&#10;  Q 221.68 128.27 222.41 129.17&#10;  Q 227.05 134.91 232.26 140.00&#10;  Q 232.35 140.10 232.38 140.22&#10;  Q 232.39 140.28 232.38 140.34&#10;  Q 232.35 140.47 232.44 140.57&#10;  Q 244.77 153.12 257.19 165.15&#10;  Q 257.59 165.54 257.78 166.06&#10;  Q 257.89 166.35 258.02 166.48&#10;  Q 262.79 170.94 265.58 176.46&#10;  Z"/>
<path fill="#5951ff" d="&#10;  M 86.80 117.92&#10;  Q 88.78 120.17 91.16 121.98&#10;  Q 94.14 124.25 95.59 125.84&#10;  Q 107.35 138.80 114.93 148.53&#10;  Q 117.75 152.14 119.86 156.41&#10;  A 0.70 0.70 0.0 0 0 120.78 156.74&#10;  Q 120.87 156.70 121.12 156.46&#10;  Q 121.29 165.79 121.35 175.12&#10;  Q 121.39 180.80 125.57 183.87&#10;  Q 125.98 184.17 126.44 183.97&#10;  Q 131.87 181.65 135.30 176.94&#10;  L 135.24 250.95&#10;  Q 134.84 252.59 134.95 254.29&#10;  Q 134.96 254.42 134.82 254.44&#10;  L 134.82 254.44&#10;  Q 134.68 254.45 134.67 254.31&#10;  Q 134.22 250.17 132.89 246.48&#10;  C 132.53 245.46 131.56 245.01 130.58 244.84&#10;  Q 130.22 244.78 130.10 244.43&#10;  Q 129.78 243.44 128.84 242.95&#10;  Q 127.64 242.31 126.75 241.29&#10;  Q 118.11 231.29 108.75 221.39&#10;  Q 105.05 217.49 101.25 215.32&#10;  Q 100.20 214.72 99.39 213.82&#10;  Q 96.87 211.04 93.84 209.09&#10;  A 1.63 1.62 63.7 0 0 93.05 208.82&#10;  Q 92.24 208.76 91.88 208.07&#10;  Q 91.74 207.79 91.53 207.55&#10;  L 62.33 174.17&#10;  Q 62.25 174.08 62.16 174.14&#10;  Q 62.04 174.22 62.06 174.35&#10;  Q 62.15 174.95 61.67 174.59&#10;  Q 60.30 173.55 59.49 172.18&#10;  Q 58.42 170.36 57.93 169.78&#10;  Q 57.07 168.74 56.17 167.52&#10;  Q 55.90 167.16 55.48 167.04&#10;  C 54.43 166.74 53.84 165.32 53.22 164.47&#10;  Q 52.93 164.07 52.44 164.00&#10;  Q 52.05 163.94 51.99 163.54&#10;  Q 51.92 163.16 51.66 162.86&#10;  C 50.24 161.28 48.97 159.61 47.35 158.22&#10;  Q 44.55 155.82 41.88 153.63&#10;  Q 41.34 153.18 40.45 152.81&#10;  C 39.22 152.30 37.86 150.82 36.79 149.95&#10;  C 35.87 149.21 34.66 149.43 33.92 147.92&#10;  Q 33.69 147.46 33.22 147.26&#10;  Q 30.78 146.20 28.75 144.23&#10;  Q 26.81 142.35 24.29 140.87&#10;  Q 23.85 140.60 23.71 140.11&#10;  Q 23.56 139.62 23.13 139.34&#10;  L 8.68 130.17&#10;  A 0.57 0.49 55.1 0 0 8.37 130.09&#10;  Q 7.78 130.12 7.41 129.68&#10;  Q 6.73 128.87 5.69 128.85&#10;  Q 5.17 128.84 4.97 128.35&#10;  Q 4.47 127.13 3.32 127.78&#10;  Q 2.82 128.06 2.81 127.49&#10;  Q 2.81 127.36 2.57 127.39&#10;  Q 2.11 127.46 2.04 127.92&#10;  Q 1.98 128.29 1.78 128.47&#10;  L 2.29 118.87&#10;  A 0.72 0.72 0.0 0 1 3.01 118.18&#10;  L 86.80 117.92&#10;  Z"/>
<path fill="#4f95ff" d="&#10;  M 86.80 117.92&#10;  L 119.17 118.49&#10;  A 1.12 1.12 0.0 0 1 120.27 119.58&#10;  L 121.12 156.46&#10;  Q 120.87 156.70 120.78 156.74&#10;  A 0.70 0.70 0.0 0 1 119.86 156.41&#10;  Q 117.75 152.14 114.93 148.53&#10;  Q 107.35 138.80 95.59 125.84&#10;  Q 94.14 124.25 91.16 121.98&#10;  Q 88.78 120.17 86.80 117.92&#10;  Z"/>
<path fill="#6d43f3" d="&#10;  M 135.24 250.95&#10;  L 135.23 255.23&#10;  L 135.24 287.49&#10;  L 134.65 285.55&#10;  Q 134.60 285.39 134.48 285.28&#10;  Q 134.26 285.07 134.13 285.22&#10;  Q 133.88 285.51 133.61 285.23&#10;  C 132.73 284.32 131.56 284.05 130.64 283.10&#10;  Q 127.46 279.79 124.38 276.31&#10;  Q 121.40 272.97 118.06 270.12&#10;  Q 118.00 270.08 117.94 270.10&#10;  Q 117.77 270.16 117.59 270.15&#10;  Q 117.31 270.13 117.11 269.93&#10;  Q 113.71 266.42 110.52 263.63&#10;  A 29.47 0.83 41.7 0 1 107.41 260.87&#10;  Q 104.50 258.28 101.88 255.38&#10;  Q 101.77 255.26 101.62 255.18&#10;  Q 101.47 255.11 101.31 255.14&#10;  Q 100.75 255.22 100.32 254.84&#10;  Q 97.95 252.73 95.40 250.99&#10;  Q 93.06 249.40 90.72 247.31&#10;  Q 76.54 234.67 63.23 220.47&#10;  Q 62.84 220.05 62.30 219.85&#10;  C 61.30 219.47 61.13 218.51 60.67 218.00&#10;  Q 52.65 209.11 43.98 200.85&#10;  Q 41.91 198.88 39.66 197.21&#10;  Q 37.45 195.57 35.21 193.59&#10;  Q 32.69 191.35 29.85 189.42&#10;  C 28.57 188.55 28.00 187.35 26.96 186.28&#10;  Q 26.59 185.89 26.34 185.40&#10;  Q 26.01 184.75 25.32 184.49&#10;  Q 24.83 184.31 24.56 183.85&#10;  Q 23.34 181.75 21.53 180.49&#10;  Q 19.92 179.38 18.81 177.53&#10;  A 1.96 1.95 -2.7 0 0 17.99 176.79&#10;  Q 17.22 176.42 16.66 175.76&#10;  Q 16.00 174.97 15.14 174.26&#10;  Q 10.66 170.60 6.40 166.67&#10;  Q 6.03 166.34 5.55 166.21&#10;  Q 4.16 165.85 2.90 165.06&#10;  Q 2.47 164.79 2.35 165.29&#10;  L 1.75 167.72&#10;  L 1.78 128.47&#10;  Q 1.98 128.29 2.04 127.92&#10;  Q 2.11 127.46 2.57 127.39&#10;  Q 2.81 127.36 2.81 127.49&#10;  Q 2.82 128.06 3.32 127.78&#10;  Q 4.47 127.13 4.97 128.35&#10;  Q 5.17 128.84 5.69 128.85&#10;  Q 6.73 128.87 7.41 129.68&#10;  Q 7.78 130.12 8.37 130.09&#10;  A 0.57 0.49 55.1 0 1 8.68 130.17&#10;  L 23.13 139.34&#10;  Q 23.56 139.62 23.71 140.11&#10;  Q 23.85 140.60 24.29 140.87&#10;  Q 26.81 142.35 28.75 144.23&#10;  Q 30.78 146.20 33.22 147.26&#10;  Q 33.69 147.46 33.92 147.92&#10;  C 34.66 149.43 35.87 149.21 36.79 149.95&#10;  C 37.86 150.82 39.22 152.30 40.45 152.81&#10;  Q 41.34 153.18 41.88 153.63&#10;  Q 44.55 155.82 47.35 158.22&#10;  C 48.97 159.61 50.24 161.28 51.66 162.86&#10;  Q 51.92 163.16 51.99 163.54&#10;  Q 52.05 163.94 52.44 164.00&#10;  Q 52.93 164.07 53.22 164.47&#10;  C 53.84 165.32 54.43 166.74 55.48 167.04&#10;  Q 55.90 167.16 56.17 167.52&#10;  Q 57.07 168.74 57.93 169.78&#10;  Q 58.42 170.36 59.49 172.18&#10;  Q 60.30 173.55 61.67 174.59&#10;  Q 62.15 174.95 62.06 174.35&#10;  Q 62.04 174.22 62.16 174.14&#10;  Q 62.25 174.08 62.33 174.17&#10;  L 91.53 207.55&#10;  Q 91.74 207.79 91.88 208.07&#10;  Q 92.24 208.76 93.05 208.82&#10;  A 1.63 1.62 63.7 0 1 93.84 209.09&#10;  Q 96.87 211.04 99.39 213.82&#10;  Q 100.20 214.72 101.25 215.32&#10;  Q 105.05 217.49 108.75 221.39&#10;  Q 118.11 231.29 126.75 241.29&#10;  Q 127.64 242.31 128.84 242.95&#10;  Q 129.78 243.44 130.10 244.43&#10;  Q 130.22 244.78 130.58 244.84&#10;  C 131.56 245.01 132.53 245.46 132.89 246.48&#10;  Q 134.22 250.17 134.67 254.31&#10;  Q 134.68 254.45 134.82 254.44&#10;  L 134.82 254.44&#10;  Q 134.96 254.42 134.95 254.29&#10;  Q 134.84 252.59 135.24 250.95&#10;  Z"/>
<path fill="#cad850" d="&#10;  M 169.89 141.17&#10;  Q 171.32 143.34 172.88 145.02&#10;  Q 173.79 146.01 174.73 146.99&#10;  Q 175.77 148.07 176.34 149.38&#10;  Q 177.54 152.11 179.87 154.37&#10;  Q 181.15 155.61 182.03 157.15&#10;  Q 183.93 160.46 186.26 163.59&#10;  Q 192.72 172.25 201.76 181.10&#10;  Q 201.85 181.19 201.84 181.32&#10;  Q 201.83 181.45 201.85 181.59&#10;  Q 201.87 181.73 201.96 181.85&#10;  Q 205.03 185.70 208.85 189.20&#10;  Q 210.75 190.94 212.09 192.67&#10;  Q 213.61 194.63 215.30 196.53&#10;  Q 215.64 196.91 216.14 196.90&#10;  Q 216.50 196.90 216.85 196.86&#10;  Q 217.70 196.78 217.64 197.64&#10;  Q 217.61 198.20 218.02 198.59&#10;  Q 219.78 200.24 221.47 201.64&#10;  C 223.25 203.11 224.29 204.93 225.72 206.77&#10;  Q 226.11 207.28 227.59 208.65&#10;  Q 229.42 210.35 230.47 213.22&#10;  L 213.25 231.05&#10;  Q 212.64 231.21 212.04 231.01&#10;  Q 211.71 230.91 211.66 230.57&#10;  Q 211.49 229.28 210.80 228.12&#10;  Q 210.39 227.43 209.84 226.89&#10;  Q 203.24 220.44 197.53 213.48&#10;  Q 196.93 212.75 196.58 211.86&#10;  Q 196.22 210.97 195.45 210.28&#10;  Q 192.84 207.96 190.34 205.61&#10;  Q 188.91 204.27 185.80 200.36&#10;  Q 183.81 197.86 180.72 195.01&#10;  Q 177.54 192.07 170.46 184.96&#10;  C 168.49 182.98 166.80 180.79 165.14 178.51&#10;  Q 163.26 175.92 161.09 173.86&#10;  Q 156.67 169.65 153.25 164.34&#10;  Q 153.19 164.24 153.22 164.12&#10;  Q 153.24 164.07 153.29 164.06&#10;  Q 153.56 164.03 153.41 163.77&#10;  Q 152.36 162.04 150.98 160.41&#10;  L 169.89 141.17&#10;  Z"/>
<path fill="#dfc933" d="&#10;  M 150.98 160.41&#10;  Q 152.36 162.04 153.41 163.77&#10;  Q 153.56 164.03 153.29 164.06&#10;  Q 153.24 164.07 153.22 164.12&#10;  Q 153.19 164.24 153.25 164.34&#10;  Q 156.67 169.65 161.09 173.86&#10;  Q 163.26 175.92 165.14 178.51&#10;  C 166.80 180.79 168.49 182.98 170.46 184.96&#10;  Q 177.54 192.07 180.72 195.01&#10;  Q 183.81 197.86 185.80 200.36&#10;  Q 188.91 204.27 190.34 205.61&#10;  Q 192.84 207.96 195.45 210.28&#10;  Q 196.22 210.97 196.58 211.86&#10;  Q 196.93 212.75 197.53 213.48&#10;  Q 203.24 220.44 209.84 226.89&#10;  Q 210.39 227.43 210.80 228.12&#10;  Q 211.49 229.28 211.66 230.57&#10;  Q 211.71 230.91 212.04 231.01&#10;  Q 212.64 231.21 213.25 231.05&#10;  L 192.49 252.06&#10;  Q 191.62 248.85 189.58 246.50&#10;  Q 189.32 246.20 189.22 245.81&#10;  Q 189.11 245.37 188.71 245.22&#10;  Q 188.28 245.05 187.99 244.68&#10;  Q 187.26 243.75 186.63 242.70&#10;  Q 185.98 241.62 185.18 240.71&#10;  Q 179.20 233.87 173.00 227.12&#10;  Q 171.12 225.07 169.44 223.02&#10;  Q 167.67 220.85 165.70 218.73&#10;  Q 162.84 215.65 161.22 212.57&#10;  Q 160.96 212.08 160.90 211.51&#10;  Q 160.85 210.99 160.53 210.57&#10;  Q 158.19 207.53 155.05 204.57&#10;  Q 153.54 203.15 152.39 201.73&#10;  Q 151.23 200.29 149.88 198.86&#10;  Q 148.87 197.78 147.69 195.43&#10;  Q 146.65 193.35 144.98 192.27&#10;  Q 144.59 192.01 144.40 191.58&#10;  Q 143.89 190.40 143.02 189.46&#10;  Q 142.12 188.49 141.60 187.16&#10;  Q 140.48 184.34 139.68 181.33&#10;  Q 139.34 180.03 139.88 178.33&#10;  Q 140.05 177.81 139.81 177.32&#10;  Q 139.13 175.87 137.65 175.04&#10;  Q 141.85 171.87 143.91 168.91&#10;  Q 147.72 163.41 150.98 160.41&#10;  Z"/>
<path fill="#813be2" d="&#10;  M 135.24 287.49&#10;  L 135.34 292.38&#10;  Q 128.79 294.36 122.65 294.79&#10;  A 1.61 1.61 0.0 0 0 121.16 296.41&#10;  L 121.21 308.46&#10;  Q 121.04 308.52 120.97 308.66&#10;  Q 120.73 309.13 120.65 308.61&#10;  Q 120.63 308.47 120.59 308.34&#10;  Q 120.52 308.11 120.28 308.13&#10;  L 118.78 308.20&#10;  Q 118.26 308.23 117.91 307.85&#10;  Q 115.90 305.65 112.55 303.37&#10;  Q 108.80 300.83 103.01 295.67&#10;  Q 102.72 295.42 103.08 295.57&#10;  Q 103.20 295.62 103.28 295.45&#10;  Q 103.37 295.26 103.23 295.12&#10;  Q 97.15 288.81 89.44 282.12&#10;  Q 88.01 280.88 84.79 277.56&#10;  Q 82.77 275.48 79.84 273.41&#10;  Q 75.84 270.59 72.18 267.33&#10;  Q 71.96 267.13 71.67 267.06&#10;  Q 71.24 266.96 70.89 266.68&#10;  Q 58.42 256.45 47.36 243.51&#10;  Q 46.91 242.98 46.58 242.35&#10;  A 2.17 2.17 0.0 0 0 46.03 241.70&#10;  Q 44.28 240.36 41.55 237.50&#10;  Q 35.73 231.39 28.36 224.43&#10;  C 24.89 221.16 21.09 218.34 17.67 215.00&#10;  C 17.07 214.41 16.27 214.19 15.74 213.62&#10;  C 13.35 211.02 10.72 207.93 7.71 206.04&#10;  Q 4.81 204.23 2.73 201.35&#10;  Q 2.66 201.26 2.60 201.35&#10;  Q 2.52 201.46 2.50 201.58&#10;  Q 2.40 202.23 2.36 201.58&#10;  Q 2.34 201.22 2.26 200.89&#10;  Q 2.07 200.08 2.00 200.91&#10;  L 1.78 203.71&#10;  L 1.75 167.72&#10;  L 2.35 165.29&#10;  Q 2.47 164.79 2.90 165.06&#10;  Q 4.16 165.85 5.55 166.21&#10;  Q 6.03 166.34 6.40 166.67&#10;  Q 10.66 170.60 15.14 174.26&#10;  Q 16.00 174.97 16.66 175.76&#10;  Q 17.22 176.42 17.99 176.79&#10;  A 1.96 1.95 -2.7 0 1 18.81 177.53&#10;  Q 19.92 179.38 21.53 180.49&#10;  Q 23.34 181.75 24.56 183.85&#10;  Q 24.83 184.31 25.32 184.49&#10;  Q 26.01 184.75 26.34 185.40&#10;  Q 26.59 185.89 26.96 186.28&#10;  C 28.00 187.35 28.57 188.55 29.85 189.42&#10;  Q 32.69 191.35 35.21 193.59&#10;  Q 37.45 195.57 39.66 197.21&#10;  Q 41.91 198.88 43.98 200.85&#10;  Q 52.65 209.11 60.67 218.00&#10;  C 61.13 218.51 61.30 219.47 62.30 219.85&#10;  Q 62.84 220.05 63.23 220.47&#10;  Q 76.54 234.67 90.72 247.31&#10;  Q 93.06 249.40 95.40 250.99&#10;  Q 97.95 252.73 100.32 254.84&#10;  Q 100.75 255.22 101.31 255.14&#10;  Q 101.47 255.11 101.62 255.18&#10;  Q 101.77 255.26 101.88 255.38&#10;  Q 104.50 258.28 107.41 260.87&#10;  A 29.47 0.83 41.7 0 0 110.52 263.63&#10;  Q 113.71 266.42 117.11 269.93&#10;  Q 117.31 270.13 117.59 270.15&#10;  Q 117.77 270.16 117.94 270.10&#10;  Q 118.00 270.08 118.06 270.12&#10;  Q 121.40 272.97 124.38 276.31&#10;  Q 127.46 279.79 130.64 283.10&#10;  C 131.56 284.05 132.73 284.32 133.61 285.23&#10;  Q 133.88 285.51 134.13 285.22&#10;  Q 134.26 285.07 134.48 285.28&#10;  Q 134.60 285.39 134.65 285.55&#10;  L 135.24 287.49&#10;  Z"/>
<path fill="#feb113" d="&#10;  M 137.65 175.04&#10;  Q 139.13 175.87 139.81 177.32&#10;  Q 140.05 177.81 139.88 178.33&#10;  Q 139.34 180.03 139.68 181.33&#10;  Q 140.48 184.34 141.60 187.16&#10;  Q 142.12 188.49 143.02 189.46&#10;  Q 143.89 190.40 144.40 191.58&#10;  Q 144.59 192.01 144.98 192.27&#10;  Q 146.65 193.35 147.69 195.43&#10;  Q 148.87 197.78 149.88 198.86&#10;  Q 151.23 200.29 152.39 201.73&#10;  Q 153.54 203.15 155.05 204.57&#10;  Q 158.19 207.53 160.53 210.57&#10;  Q 160.85 210.99 160.90 211.51&#10;  Q 160.96 212.08 161.22 212.57&#10;  Q 162.84 215.65 165.70 218.73&#10;  Q 167.67 220.85 169.44 223.02&#10;  Q 171.12 225.07 173.00 227.12&#10;  Q 179.20 233.87 185.18 240.71&#10;  Q 185.98 241.62 186.63 242.70&#10;  Q 187.26 243.75 187.99 244.68&#10;  Q 188.28 245.05 188.71 245.22&#10;  Q 189.11 245.37 189.22 245.81&#10;  Q 189.32 246.20 189.58 246.50&#10;  Q 191.62 248.85 192.49 252.06&#10;  L 170.34 274.59&#10;  L 167.42 273.72&#10;  Q 166.96 273.58 166.53 273.80&#10;  Q 165.03 274.54 163.10 274.61&#10;  Q 162.71 274.62 162.46 274.91&#10;  Q 162.38 275.01 162.31 275.12&#10;  Q 161.99 275.66 162.18 275.06&#10;  Q 162.20 274.99 162.25 274.93&#10;  Q 162.41 274.74 162.48 274.49&#10;  Q 163.15 272.24 163.67 270.12&#10;  C 163.94 269.01 163.78 267.42 163.34 266.37&#10;  Q 162.03 263.24 159.84 260.11&#10;  C 158.55 258.27 156.78 257.38 155.67 255.43&#10;  Q 155.43 255.00 155.22 255.44&#10;  Q 155.16 255.56 154.98 255.56&#10;  Q 154.84 255.57 154.76 255.45&#10;  Q 153.35 253.17 150.88 252.89&#10;  Q 150.28 252.83 150.60 253.34&#10;  Q 150.75 253.59 151.00 253.73&#10;  Q 151.85 254.24 150.86 254.27&#10;  Q 149.90 254.31 148.95 254.65&#10;  Q 148.53 254.80 148.11 254.66&#10;  Q 146.86 254.27 146.38 255.57&#10;  A 0.52 0.52 0.0 0 1 145.51 255.75&#10;  Q 145.02 255.23 144.68 255.81&#10;  Q 144.45 256.19 144.08 255.95&#10;  L 141.58 254.34&#10;  Q 141.10 254.04 140.89 254.56&#10;  L 139.84 257.09&#10;  Q 139.66 257.53 139.31 257.20&#10;  Q 139.21 257.11 139.13 256.98&#10;  Q 138.65 256.16 138.40 257.08&#10;  Q 138.30 257.45 138.37 257.82&#10;  Q 138.60 258.90 138.18 257.89&#10;  Q 137.73 256.82 137.97 255.80&#10;  Q 138.16 254.97 137.32 255.10&#10;  Q 137.16 255.13 136.99 255.05&#10;  Q 136.63 254.88 136.55 254.49&#10;  Q 136.51 254.25 136.35 254.05&#10;  Q 135.79 253.34 135.71 254.24&#10;  Q 135.64 254.95 135.23 255.23&#10;  L 135.24 250.95&#10;  L 135.30 176.94&#10;  L 137.65 175.04&#10;  Z"/>
<path fill="#9435d2" d="&#10;  M 121.21 308.46&#10;  L 121.22 351.72&#10;  Q 121.18 350.42 120.83 350.23&#10;  Q 120.49 350.04 120.56 350.42&#10;  Q 120.71 351.25 120.01 351.62&#10;  Q 119.64 351.81 119.29 351.57&#10;  Q 118.52 351.05 117.67 351.31&#10;  Q 117.61 351.33 117.61 351.26&#10;  Q 117.60 351.17 117.68 351.10&#10;  A 0.09 0.09 0.0 0 0 117.67 350.96&#10;  Q 111.89 347.24 107.66 343.34&#10;  Q 105.32 341.19 99.55 335.52&#10;  Q 98.63 334.62 97.76 333.60&#10;  Q 95.80 331.32 93.47 330.35&#10;  A 0.67 0.67 0.0 0 1 93.09 329.50&#10;  Q 93.44 328.55 92.58 328.10&#10;  Q 92.25 327.92 91.98 327.65&#10;  Q 74.65 310.24 55.46 292.43&#10;  Q 48.52 285.99 42.45 280.80&#10;  Q 42.23 280.61 41.96 280.54&#10;  Q 41.48 280.41 41.17 280.02&#10;  Q 40.23 278.81 38.91 278.08&#10;  A 2.03 2.02 88.7 0 1 38.16 277.36&#10;  Q 37.22 275.85 35.78 274.70&#10;  Q 34.17 273.41 32.75 271.68&#10;  Q 31.59 270.25 30.06 268.85&#10;  C 26.44 265.55 23.41 261.86 19.73 258.50&#10;  C 18.43 257.31 16.90 256.55 15.67 255.27&#10;  Q 14.28 253.81 12.56 252.71&#10;  Q 9.81 250.97 7.72 248.43&#10;  Q 7.04 247.60 6.15 247.00&#10;  C 5.84 246.79 5.48 246.33 5.40 245.96&#10;  A 1.00 0.98 5.5 0 0 4.82 245.27&#10;  Q 3.69 244.80 3.02 245.72&#10;  Q 2.77 246.06 2.87 245.66&#10;  Q 2.88 245.61 2.87 245.56&#10;  Q 2.78 245.16 2.44 245.44&#10;  Q 2.13 245.69 1.77 245.98&#10;  L 1.78 203.71&#10;  L 2.00 200.91&#10;  Q 2.07 200.08 2.26 200.89&#10;  Q 2.34 201.22 2.36 201.58&#10;  Q 2.40 202.23 2.50 201.58&#10;  Q 2.52 201.46 2.60 201.35&#10;  Q 2.66 201.26 2.73 201.35&#10;  Q 4.81 204.23 7.71 206.04&#10;  C 10.72 207.93 13.35 211.02 15.74 213.62&#10;  C 16.27 214.19 17.07 214.41 17.67 215.00&#10;  C 21.09 218.34 24.89 221.16 28.36 224.43&#10;  Q 35.73 231.39 41.55 237.50&#10;  Q 44.28 240.36 46.03 241.70&#10;  A 2.17 2.17 0.0 0 1 46.58 242.35&#10;  Q 46.91 242.98 47.36 243.51&#10;  Q 58.42 256.45 70.89 266.68&#10;  Q 71.24 266.96 71.67 267.06&#10;  Q 71.96 267.13 72.18 267.33&#10;  Q 75.84 270.59 79.84 273.41&#10;  Q 82.77 275.48 84.79 277.56&#10;  Q 88.01 280.88 89.44 282.12&#10;  Q 97.15 288.81 103.23 295.12&#10;  Q 103.37 295.26 103.28 295.45&#10;  Q 103.20 295.62 103.08 295.57&#10;  Q 102.72 295.42 103.01 295.67&#10;  Q 108.80 300.83 112.55 303.37&#10;  Q 115.90 305.65 117.91 307.85&#10;  Q 118.26 308.23 118.78 308.20&#10;  L 120.28 308.13&#10;  Q 120.52 308.11 120.59 308.34&#10;  Q 120.63 308.47 120.65 308.61&#10;  Q 120.73 309.13 120.97 308.66&#10;  Q 121.04 308.52 121.21 308.46&#10;  Z"/>
<path fill="#6fcbb7" d="&#10;  M 282.12 232.78&#10;  Q 281.29 233.26 282.22 234.19&#10;  Q 282.75 234.72 282.01 234.85&#10;  Q 280.44 235.13 279.99 236.40&#10;  Q 279.77 236.99 279.21 236.71&#10;  Q 278.91 236.56 278.60 236.70&#10;  Q 278.11 236.92 277.78 237.35&#10;  Q 277.52 237.70 277.08 237.63&#10;  Q 276.56 237.55 276.14 237.88&#10;  L 274.18 239.42&#10;  Q 273.76 239.75 273.24 239.87&#10;  Q 272.40 240.06 272.21 241.03&#10;  Q 272.05 241.81 271.25 241.87&#10;  Q 270.82 241.91 270.87 242.43&#10;  A 0.94 0.93 75.4 0 1 270.31 243.40&#10;  Q 268.88 244.02 267.57 245.36&#10;  Q 261.99 251.09 256.45 256.39&#10;  Q 254.92 257.86 253.13 259.17&#10;  Q 252.67 259.51 252.57 260.07&#10;  Q 252.46 260.71 251.76 260.74&#10;  A 1.06 1.05 20.4 0 0 251.05 261.06&#10;  L 249.57 262.59&#10;  Q 249.29 262.87 248.90 262.84&#10;  Q 248.59 262.81 248.58 263.25&#10;  A 0.73 0.71 -17.1 0 1 248.27 263.82&#10;  Q 244.84 266.20 241.80 269.47&#10;  Q 240.76 270.59 239.52 271.53&#10;  Q 238.27 272.48 237.13 273.52&#10;  Q 230.09 279.88 223.55 286.53&#10;  C 222.77 287.33 221.93 287.69 221.32 288.69&#10;  Q 220.70 289.70 219.83 290.48&#10;  Q 215.28 294.58 211.53 299.34&#10;  Q 211.23 299.72 211.04 300.16&#10;  Q 210.84 300.64 210.36 300.90&#10;  Q 209.85 301.18 209.54 301.67&#10;  Q 208.44 303.38 206.94 304.91&#10;  Q 205.78 306.11 204.59 307.93&#10;  Q 203.26 309.99 201.61 310.45&#10;  L 185.50 291.36&#10;  A 2.29 2.29 0.0 0 1 185.63 288.26&#10;  C 198.02 275.88 209.65 263.50 221.62 251.23&#10;  Q 241.35 231.02 261.09 209.33&#10;  A 1.16 1.16 0.0 0 1 262.84 209.37&#10;  L 282.12 232.78&#10;  Z"/>
<path fill="#64bdd4" d="&#10;  M 282.12 232.78&#10;  L 310.28 268.06&#10;  Q 308.87 268.43 309.10 269.97&#10;  Q 309.21 270.73 308.45 270.83&#10;  L 307.88 270.90&#10;  Q 307.34 270.97 306.98 271.38&#10;  Q 305.78 272.73 304.66 273.96&#10;  Q 303.62 275.10 302.09 275.96&#10;  Q 300.43 276.90 298.78 278.00&#10;  Q 297.04 279.16 295.82 280.62&#10;  Q 293.75 283.09 291.86 284.86&#10;  Q 290.08 286.52 288.62 288.47&#10;  Q 285.25 292.93 281.37 296.75&#10;  Q 281.22 296.90 281.02 296.92&#10;  Q 280.87 296.94 280.77 297.05&#10;  Q 278.53 299.51 276.23 301.85&#10;  Q 274.20 303.92 271.71 305.59&#10;  Q 269.09 307.35 266.83 309.43&#10;  Q 258.95 316.67 251.30 323.12&#10;  C 250.60 323.71 250.37 324.45 249.41 324.70&#10;  A 1.55 1.51 -73.8 0 0 248.79 325.05&#10;  L 246.00 327.68&#10;  Q 245.59 328.06 245.04 328.14&#10;  Q 243.75 328.31 242.94 329.46&#10;  Q 242.22 330.48 241.29 331.29&#10;  Q 236.59 335.36 231.78 339.28&#10;  Q 231.20 339.75 230.73 340.35&#10;  Q 230.24 340.97 229.86 341.66&#10;  Q 229.60 342.15 229.05 342.06&#10;  Q 228.04 341.90 227.40 342.75&#10;  L 201.61 310.45&#10;  Q 203.26 309.99 204.59 307.93&#10;  Q 205.78 306.11 206.94 304.91&#10;  Q 208.44 303.38 209.54 301.67&#10;  Q 209.85 301.18 210.36 300.90&#10;  Q 210.84 300.64 211.04 300.16&#10;  Q 211.23 299.72 211.53 299.34&#10;  Q 215.28 294.58 219.83 290.48&#10;  Q 220.70 289.70 221.32 288.69&#10;  C 221.93 287.69 222.77 287.33 223.55 286.53&#10;  Q 230.09 279.88 237.13 273.52&#10;  Q 238.27 272.48 239.52 271.53&#10;  Q 240.76 270.59 241.80 269.47&#10;  Q 244.84 266.20 248.27 263.82&#10;  A 0.73 0.71 -17.1 0 0 248.58 263.25&#10;  Q 248.59 262.81 248.90 262.84&#10;  Q 249.29 262.87 249.57 262.59&#10;  L 251.05 261.06&#10;  A 1.06 1.05 20.4 0 1 251.76 260.74&#10;  Q 252.46 260.71 252.57 260.07&#10;  Q 252.67 259.51 253.13 259.17&#10;  Q 254.92 257.86 256.45 256.39&#10;  Q 261.99 251.09 267.57 245.36&#10;  Q 268.88 244.02 270.31 243.40&#10;  A 0.94 0.93 75.4 0 0 270.87 242.43&#10;  Q 270.82 241.91 271.25 241.87&#10;  Q 272.05 241.81 272.21 241.03&#10;  Q 272.40 240.06 273.24 239.87&#10;  Q 273.76 239.75 274.18 239.42&#10;  L 276.14 237.88&#10;  Q 276.56 237.55 277.08 237.63&#10;  Q 277.52 237.70 277.78 237.35&#10;  Q 278.11 236.92 278.60 236.70&#10;  Q 278.91 236.56 279.21 236.71&#10;  Q 279.77 236.99 279.99 236.40&#10;  Q 280.44 235.13 282.01 234.85&#10;  Q 282.75 234.72 282.22 234.19&#10;  Q 281.29 233.26 282.12 232.78&#10;  Z"/>
<path fill="#a52fc2" d="&#10;  M 121.22 351.72&#10;  L 121.18 381.48&#10;  L 120.44 378.84&#10;  Q 120.28 378.27 119.83 378.65&#10;  Q 119.02 379.36 118.17 378.52&#10;  Q 117.79 378.15 117.81 378.68&#10;  Q 117.81 378.93 117.38 378.79&#10;  Q 117.13 378.70 116.99 378.48&#10;  Q 116.89 378.32 116.88 378.14&#10;  Q 116.87 377.39 116.28 377.85&#10;  Q 115.99 378.07 115.65 378.06&#10;  Q 115.25 378.06 114.92 377.81&#10;  Q 106.99 371.79 100.22 365.24&#10;  Q 98.24 363.33 96.20 361.64&#10;  Q 95.88 361.37 95.46 361.37&#10;  L 93.51 361.37&#10;  Q 92.92 361.37 92.94 360.78&#10;  Q 93.02 358.85 91.41 357.41&#10;  Q 87.21 353.65 83.13 350.03&#10;  Q 83.11 350.02 83.11 349.99&#10;  Q 83.10 349.86 83.13 349.74&#10;  Q 83.19 349.45 82.98 349.24&#10;  Q 79.59 346.00 76.05 342.48&#10;  Q 72.81 339.26 69.31 336.27&#10;  Q 65.97 333.40 62.48 330.16&#10;  Q 61.82 329.55 61.89 328.65&#10;  A 0.32 0.32 0.0 0 0 61.47 328.32&#10;  C 60.48 328.64 59.77 328.20 59.21 327.42&#10;  Q 58.18 325.98 56.87 324.84&#10;  Q 54.50 322.78 54.26 322.54&#10;  Q 50.52 318.83 47.16 315.80&#10;  Q 45.03 313.87 42.81 311.24&#10;  Q 40.71 308.75 37.71 306.31&#10;  Q 35.68 304.66 34.11 302.42&#10;  C 33.22 301.16 31.88 300.24 30.64 299.35&#10;  Q 29.36 298.44 28.32 296.79&#10;  Q 27.02 294.74 25.52 292.99&#10;  Q 25.22 292.65 24.84 292.45&#10;  Q 24.32 292.17 23.91 291.84&#10;  Q 17.72 286.79 12.18 281.59&#10;  Q 12.09 281.50 12.16 281.35&#10;  Q 12.19 281.27 12.09 281.16&#10;  L 6.65 275.59&#10;  Q 6.40 275.33 6.04 275.26&#10;  Q 5.58 275.17 5.57 274.71&#10;  Q 5.55 273.97 4.82 273.84&#10;  Q 4.15 273.72 3.68 273.23&#10;  Q 3.32 272.85 2.82 272.99&#10;  Q 2.22 273.16 1.75 273.05&#10;  L 1.77 245.98&#10;  Q 2.13 245.69 2.44 245.44&#10;  Q 2.78 245.16 2.87 245.56&#10;  Q 2.88 245.61 2.87 245.66&#10;  Q 2.77 246.06 3.02 245.72&#10;  Q 3.69 244.80 4.82 245.27&#10;  A 1.00 0.98 5.5 0 1 5.40 245.96&#10;  C 5.48 246.33 5.84 246.79 6.15 247.00&#10;  Q 7.04 247.60 7.72 248.43&#10;  Q 9.81 250.97 12.56 252.71&#10;  Q 14.28 253.81 15.67 255.27&#10;  C 16.90 256.55 18.43 257.31 19.73 258.50&#10;  C 23.41 261.86 26.44 265.55 30.06 268.85&#10;  Q 31.59 270.25 32.75 271.68&#10;  Q 34.17 273.41 35.78 274.70&#10;  Q 37.22 275.85 38.16 277.36&#10;  A 2.03 2.02 88.7 0 0 38.91 278.08&#10;  Q 40.23 278.81 41.17 280.02&#10;  Q 41.48 280.41 41.96 280.54&#10;  Q 42.23 280.61 42.45 280.80&#10;  Q 48.52 285.99 55.46 292.43&#10;  Q 74.65 310.24 91.98 327.65&#10;  Q 92.25 327.92 92.58 328.10&#10;  Q 93.44 328.55 93.09 329.50&#10;  A 0.67 0.67 0.0 0 0 93.47 330.35&#10;  Q 95.80 331.32 97.76 333.60&#10;  Q 98.63 334.62 99.55 335.52&#10;  Q 105.32 341.19 107.66 343.34&#10;  Q 111.89 347.24 117.67 350.96&#10;  A 0.09 0.09 0.0 0 1 117.68 351.10&#10;  Q 117.60 351.17 117.61 351.26&#10;  Q 117.61 351.33 117.67 351.31&#10;  Q 118.52 351.05 119.29 351.57&#10;  Q 119.64 351.81 120.01 351.62&#10;  Q 120.71 351.25 120.56 350.42&#10;  Q 120.49 350.04 120.83 350.23&#10;  Q 121.18 350.42 121.22 351.72&#10;  Z"/>
<path fill="#ff8f1a" d="&#10;  M 170.34 274.59&#10;  Q 165.77 277.93 163.76 283.02&#10;  Q 162.52 286.15 161.42 287.39&#10;  C 159.50 289.54 156.56 292.10 153.50 292.11&#10;  Q 140.23 292.17 135.34 292.38&#10;  L 135.24 287.49&#10;  L 135.23 255.23&#10;  Q 135.64 254.95 135.71 254.24&#10;  Q 135.79 253.34 136.35 254.05&#10;  Q 136.51 254.25 136.55 254.49&#10;  Q 136.63 254.88 136.99 255.05&#10;  Q 137.16 255.13 137.32 255.10&#10;  Q 138.16 254.97 137.97 255.80&#10;  Q 137.73 256.82 138.18 257.89&#10;  Q 138.60 258.90 138.37 257.82&#10;  Q 138.30 257.45 138.40 257.08&#10;  Q 138.65 256.16 139.13 256.98&#10;  Q 139.21 257.11 139.31 257.20&#10;  Q 139.66 257.53 139.84 257.09&#10;  L 140.89 254.56&#10;  Q 141.10 254.04 141.58 254.34&#10;  L 144.08 255.95&#10;  Q 144.45 256.19 144.68 255.81&#10;  Q 145.02 255.23 145.51 255.75&#10;  A 0.52 0.52 0.0 0 0 146.38 255.57&#10;  Q 146.86 254.27 148.11 254.66&#10;  Q 148.53 254.80 148.95 254.65&#10;  Q 149.90 254.31 150.86 254.27&#10;  Q 151.85 254.24 151.00 253.73&#10;  Q 150.75 253.59 150.60 253.34&#10;  Q 150.28 252.83 150.88 252.89&#10;  Q 153.35 253.17 154.76 255.45&#10;  Q 154.84 255.57 154.98 255.56&#10;  Q 155.16 255.56 155.22 255.44&#10;  Q 155.43 255.00 155.67 255.43&#10;  C 156.78 257.38 158.55 258.27 159.84 260.11&#10;  Q 162.03 263.24 163.34 266.37&#10;  C 163.78 267.42 163.94 269.01 163.67 270.12&#10;  Q 163.15 272.24 162.48 274.49&#10;  Q 162.41 274.74 162.25 274.93&#10;  Q 162.20 274.99 162.18 275.06&#10;  Q 161.99 275.66 162.31 275.12&#10;  Q 162.38 275.01 162.46 274.91&#10;  Q 162.71 274.62 163.10 274.61&#10;  Q 165.03 274.54 166.53 273.80&#10;  Q 166.96 273.58 167.42 273.72&#10;  L 170.34 274.59&#10;  Z"/>
<path fill="#59adee" d="&#10;  M 310.28 268.06&#10;  L 335.81 300.75&#10;  Q 335.58 300.80 335.81 301.33&#10;  Q 336.14 302.10 335.34 301.86&#10;  Q 334.72 301.68 334.60 302.37&#10;  A 1.03 0.96 72.7 0 1 334.36 302.87&#10;  L 332.03 305.56&#10;  A 1.20 1.19 70.0 0 0 331.74 306.19&#10;  Q 331.65 306.85 330.96 306.87&#10;  A 0.90 0.89 15.6 0 0 330.26 307.26&#10;  Q 327.29 311.59 323.33 315.51&#10;  Q 323.09 315.74 323.03 316.07&#10;  Q 323.01 316.21 322.95 316.34&#10;  Q 322.85 316.55 322.68 316.68&#10;  Q 321.25 317.82 320.24 319.28&#10;  Q 318.46 321.84 316.60 324.21&#10;  C 315.89 325.12 315.02 325.55 314.63 326.65&#10;  Q 314.45 327.17 314.02 327.51&#10;  Q 312.17 329.01 310.96 331.00&#10;  Q 309.78 332.93 308.03 334.66&#10;  Q 304.68 337.95 300.60 342.59&#10;  Q 300.28 342.96 299.80 343.17&#10;  Q 299.23 343.41 298.92 343.95&#10;  Q 298.38 344.91 297.32 345.29&#10;  Q 297.13 345.36 297.05 345.55&#10;  Q 296.99 345.69 296.95 345.83&#10;  Q 296.82 346.23 296.54 346.54&#10;  Q 293.99 349.40 290.99 351.72&#10;  Q 289.16 353.14 285.72 357.15&#10;  Q 284.67 358.38 283.20 359.21&#10;  Q 282.76 359.46 282.52 359.90&#10;  Q 281.78 361.25 280.01 361.31&#10;  Q 279.70 361.32 279.66 361.63&#10;  Q 279.46 363.41 278.04 364.89&#10;  Q 273.66 369.44 269.83 374.47&#10;  Q 269.55 374.84 269.11 374.98&#10;  Q 268.63 375.14 268.45 375.62&#10;  Q 268.27 376.10 267.77 376.10&#10;  Q 267.51 376.09 267.25 376.11&#10;  Q 266.78 376.13 266.33 376.36&#10;  Q 261.74 378.76 259.19 384.27&#10;  L 227.40 342.75&#10;  Q 228.04 341.90 229.05 342.06&#10;  Q 229.60 342.15 229.86 341.66&#10;  Q 230.24 340.97 230.73 340.35&#10;  Q 231.20 339.75 231.78 339.28&#10;  Q 236.59 335.36 241.29 331.29&#10;  Q 242.22 330.48 242.94 329.46&#10;  Q 243.75 328.31 245.04 328.14&#10;  Q 245.59 328.06 246.00 327.68&#10;  L 248.79 325.05&#10;  A 1.55 1.51 -73.8 0 1 249.41 324.70&#10;  C 250.37 324.45 250.60 323.71 251.30 323.12&#10;  Q 258.95 316.67 266.83 309.43&#10;  Q 269.09 307.35 271.71 305.59&#10;  Q 274.20 303.92 276.23 301.85&#10;  Q 278.53 299.51 280.77 297.05&#10;  Q 280.87 296.94 281.02 296.92&#10;  Q 281.22 296.90 281.37 296.75&#10;  Q 285.25 292.93 288.62 288.47&#10;  Q 290.08 286.52 291.86 284.86&#10;  Q 293.75 283.09 295.82 280.62&#10;  Q 297.04 279.16 298.78 278.00&#10;  Q 300.43 276.90 302.09 275.96&#10;  Q 303.62 275.10 304.66 273.96&#10;  Q 305.78 272.73 306.98 271.38&#10;  Q 307.34 270.97 307.88 270.90&#10;  L 308.45 270.83&#10;  Q 309.21 270.73 309.10 269.97&#10;  Q 308.87 268.43 310.28 268.06&#10;  Z"/>
<path fill="#b929af" d="&#10;  M 121.18 381.48&#10;  L 120.94 422.43&#10;  Q 120.93 423.98 119.38 423.98&#10;  L 93.06 423.96&#10;  L 86.52 423.44&#10;  Q 86.07 423.40 85.65 423.24&#10;  Q 85.33 423.12 84.97 423.01&#10;  Q 84.22 422.78 85.00 422.67&#10;  Q 85.14 422.66 85.28 422.65&#10;  Q 86.12 422.59 85.54 421.99&#10;  Q 85.34 421.77 85.03 421.75&#10;  Q 84.49 421.71 84.16 421.29&#10;  Q 83.42 420.38 82.92 419.32&#10;  C 82.66 418.77 82.30 418.51 81.75 418.33&#10;  Q 81.35 418.20 81.43 417.79&#10;  Q 81.54 417.22 80.94 417.15&#10;  Q 80.21 417.07 79.80 416.46&#10;  C 78.96 415.19 77.42 414.74 76.30 413.60&#10;  Q 75.11 412.39 73.68 411.47&#10;  Q 71.96 410.36 70.81 409.31&#10;  Q 65.86 404.82 60.97 400.40&#10;  Q 56.90 396.72 53.18 392.96&#10;  Q 50.07 389.82 46.80 386.63&#10;  Q 45.80 385.66 44.71 384.81&#10;  C 43.56 383.90 42.36 382.46 40.99 382.02&#10;  A 1.50 1.49 -4.6 0 1 40.14 381.30&#10;  Q 39.62 380.30 38.59 379.72&#10;  Q 37.55 379.13 36.81 378.12&#10;  Q 34.64 375.11 32.04 372.41&#10;  Q 31.15 371.48 30.58 370.24&#10;  Q 29.98 368.91 28.95 367.65&#10;  Q 27.60 366.02 26.33 364.16&#10;  C 24.90 362.08 23.10 360.30 21.73 358.16&#10;  Q 20.31 355.96 18.48 354.01&#10;  Q 18.38 353.91 18.37 353.78&#10;  Q 18.35 353.65 18.39 353.52&#10;  Q 18.45 353.33 18.32 353.18&#10;  Q 15.46 349.70 12.84 346.11&#10;  Q 11.72 344.56 10.28 343.25&#10;  C 8.52 341.64 7.52 339.73 5.59 338.24&#10;  Q 4.48 337.39 3.63 336.34&#10;  A 0.71 0.70 -53.0 0 0 2.44 336.51&#10;  Q 2.31 336.82 2.36 337.19&#10;  Q 2.38 337.29 2.39 337.19&#10;  Q 2.50 336.03 1.78 334.95&#10;  L 1.75 273.05&#10;  Q 2.22 273.16 2.82 272.99&#10;  Q 3.32 272.85 3.68 273.23&#10;  Q 4.15 273.72 4.82 273.84&#10;  Q 5.55 273.97 5.57 274.71&#10;  Q 5.58 275.17 6.04 275.26&#10;  Q 6.40 275.33 6.65 275.59&#10;  L 12.09 281.16&#10;  Q 12.19 281.27 12.16 281.35&#10;  Q 12.09 281.50 12.18 281.59&#10;  Q 17.72 286.79 23.91 291.84&#10;  Q 24.32 292.17 24.84 292.45&#10;  Q 25.22 292.65 25.52 292.99&#10;  Q 27.02 294.74 28.32 296.79&#10;  Q 29.36 298.44 30.64 299.35&#10;  C 31.88 300.24 33.22 301.16 34.11 302.42&#10;  Q 35.68 304.66 37.71 306.31&#10;  Q 40.71 308.75 42.81 311.24&#10;  Q 45.03 313.87 47.16 315.80&#10;  Q 50.52 318.83 54.26 322.54&#10;  Q 54.50 322.78 56.87 324.84&#10;  Q 58.18 325.98 59.21 327.42&#10;  C 59.77 328.20 60.48 328.64 61.47 328.32&#10;  A 0.32 0.32 0.0 0 1 61.89 328.65&#10;  Q 61.82 329.55 62.48 330.16&#10;  Q 65.97 333.40 69.31 336.27&#10;  Q 72.81 339.26 76.05 342.48&#10;  Q 79.59 346.00 82.98 349.24&#10;  Q 83.19 349.45 83.13 349.74&#10;  Q 83.10 349.86 83.11 349.99&#10;  Q 83.11 350.02 83.13 350.03&#10;  Q 87.21 353.65 91.41 357.41&#10;  Q 93.02 358.85 92.94 360.78&#10;  Q 92.92 361.37 93.51 361.37&#10;  L 95.46 361.37&#10;  Q 95.88 361.37 96.20 361.64&#10;  Q 98.24 363.33 100.22 365.24&#10;  Q 106.99 371.79 114.92 377.81&#10;  Q 115.25 378.06 115.65 378.06&#10;  Q 115.99 378.07 116.28 377.85&#10;  Q 116.87 377.39 116.88 378.14&#10;  Q 116.89 378.32 116.99 378.48&#10;  Q 117.13 378.70 117.38 378.79&#10;  Q 117.81 378.93 117.81 378.68&#10;  Q 117.79 378.15 118.17 378.52&#10;  Q 119.02 379.36 119.83 378.65&#10;  Q 120.28 378.27 120.44 378.84&#10;  L 121.18 381.48&#10;  Z"/>
<path fill="#4f95ff" d="&#10;  M 335.81 300.75&#10;  L 409.98 397.04&#10;  Q 409.97 397.16 409.92 397.31&#10;  Q 409.89 397.40 409.80 397.35&#10;  Q 408.31 396.46 406.71 397.37&#10;  Q 406.43 397.53 406.44 397.85&#10;  Q 406.44 398.28 406.07 398.49&#10;  Q 404.66 399.29 403.90 400.81&#10;  Q 403.60 401.40 402.95 401.27&#10;  Q 401.30 400.97 400.10 402.24&#10;  Q 399.75 402.62 399.23 402.60&#10;  Q 397.33 402.51 395.81 404.02&#10;  Q 395.52 404.31 395.11 404.28&#10;  Q 393.90 404.20 392.78 405.17&#10;  Q 390.52 407.14 388.59 409.33&#10;  Q 386.55 411.65 384.50 413.51&#10;  Q 381.11 416.60 376.63 420.82&#10;  Q 376.03 421.39 375.73 422.29&#10;  Q 375.53 422.90 374.91 422.90&#10;  Q 374.38 422.89 374.30 423.41&#10;  Q 374.27 423.62 374.46 423.67&#10;  Q 375.32 423.92 374.43 423.89&#10;  Q 374.27 423.89 374.24 424.04&#10;  Q 374.19 424.35 373.90 424.21&#10;  Q 373.27 423.92 372.70 424.75&#10;  L 291.64 424.42&#10;  A 3.61 3.59 -18.3 0 1 288.79 423.00&#10;  L 259.19 384.27&#10;  Q 261.74 378.76 266.33 376.36&#10;  Q 266.78 376.13 267.25 376.11&#10;  Q 267.51 376.09 267.77 376.10&#10;  Q 268.27 376.10 268.45 375.62&#10;  Q 268.63 375.14 269.11 374.98&#10;  Q 269.55 374.84 269.83 374.47&#10;  Q 273.66 369.44 278.04 364.89&#10;  Q 279.46 363.41 279.66 361.63&#10;  Q 279.70 361.32 280.01 361.31&#10;  Q 281.78 361.25 282.52 359.90&#10;  Q 282.76 359.46 283.20 359.21&#10;  Q 284.67 358.38 285.72 357.15&#10;  Q 289.16 353.14 290.99 351.72&#10;  Q 293.99 349.40 296.54 346.54&#10;  Q 296.82 346.23 296.95 345.83&#10;  Q 296.99 345.69 297.05 345.55&#10;  Q 297.13 345.36 297.32 345.29&#10;  Q 298.38 344.91 298.92 343.95&#10;  Q 299.23 343.41 299.80 343.17&#10;  Q 300.28 342.96 300.60 342.59&#10;  Q 304.68 337.95 308.03 334.66&#10;  Q 309.78 332.93 310.96 331.00&#10;  Q 312.17 329.01 314.02 327.51&#10;  Q 314.45 327.17 314.63 326.65&#10;  C 315.02 325.55 315.89 325.12 316.60 324.21&#10;  Q 318.46 321.84 320.24 319.28&#10;  Q 321.25 317.82 322.68 316.68&#10;  Q 322.85 316.55 322.95 316.34&#10;  Q 323.01 316.21 323.03 316.07&#10;  Q 323.09 315.74 323.33 315.51&#10;  Q 327.29 311.59 330.26 307.26&#10;  A 0.90 0.89 15.6 0 1 330.96 306.87&#10;  Q 331.65 306.85 331.74 306.19&#10;  A 1.20 1.19 70.0 0 1 332.03 305.56&#10;  L 334.36 302.87&#10;  A 1.03 0.96 72.7 0 0 334.60 302.37&#10;  Q 334.72 301.68 335.34 301.86&#10;  Q 336.14 302.10 335.81 301.33&#10;  Q 335.58 300.80 335.81 300.75&#10;  Z"/>
<path fill="#d1249a" d="&#10;  M 1.78 334.95&#10;  Q 2.50 336.03 2.39 337.19&#10;  Q 2.38 337.29 2.36 337.19&#10;  Q 2.31 336.82 2.44 336.51&#10;  A 0.71 0.70 -53.0 0 1 3.63 336.34&#10;  Q 4.48 337.39 5.59 338.24&#10;  C 7.52 339.73 8.52 341.64 10.28 343.25&#10;  Q 11.72 344.56 12.84 346.11&#10;  Q 15.46 349.70 18.32 353.18&#10;  Q 18.45 353.33 18.39 353.52&#10;  Q 18.35 353.65 18.37 353.78&#10;  Q 18.38 353.91 18.48 354.01&#10;  Q 20.31 355.96 21.73 358.16&#10;  C 23.10 360.30 24.90 362.08 26.33 364.16&#10;  Q 27.60 366.02 28.95 367.65&#10;  Q 29.98 368.91 30.58 370.24&#10;  Q 31.15 371.48 32.04 372.41&#10;  Q 34.64 375.11 36.81 378.12&#10;  Q 37.55 379.13 38.59 379.72&#10;  Q 39.62 380.30 40.14 381.30&#10;  A 1.50 1.49 -4.6 0 0 40.99 382.02&#10;  C 42.36 382.46 43.56 383.90 44.71 384.81&#10;  Q 45.80 385.66 46.80 386.63&#10;  Q 50.07 389.82 53.18 392.96&#10;  Q 56.90 396.72 60.97 400.40&#10;  Q 65.86 404.82 70.81 409.31&#10;  Q 71.96 410.36 73.68 411.47&#10;  Q 75.11 412.39 76.30 413.60&#10;  C 77.42 414.74 78.96 415.19 79.80 416.46&#10;  Q 80.21 417.07 80.94 417.15&#10;  Q 81.54 417.22 81.43 417.79&#10;  Q 81.35 418.20 81.75 418.33&#10;  C 82.30 418.51 82.66 418.77 82.92 419.32&#10;  Q 83.42 420.38 84.16 421.29&#10;  Q 84.49 421.71 85.03 421.75&#10;  Q 85.34 421.77 85.54 421.99&#10;  Q 86.12 422.59 85.28 422.65&#10;  Q 85.14 422.66 85.00 422.67&#10;  Q 84.22 422.78 84.97 423.01&#10;  Q 85.33 423.12 85.65 423.24&#10;  Q 86.07 423.40 86.52 423.44&#10;  L 93.06 423.96&#10;  L 2.88 424.00&#10;  Q 2.04 424.00 2.03 423.16&#10;  L 1.78 334.95&#10;  Z"/>
<path fill="#4c72ff" d="&#10;  M 409.98 397.04&#10;  L 430.21 423.73&#10;  Q 431.36 425.24 429.46 425.23&#10;  L 372.70 424.75&#10;  Q 373.27 423.92 373.90 424.21&#10;  Q 374.19 424.35 374.24 424.04&#10;  Q 374.27 423.89 374.43 423.89&#10;  Q 375.32 423.92 374.46 423.67&#10;  Q 374.27 423.62 374.30 423.41&#10;  Q 374.38 422.89 374.91 422.90&#10;  Q 375.53 422.90 375.73 422.29&#10;  Q 376.03 421.39 376.63 420.82&#10;  Q 381.11 416.60 384.50 413.51&#10;  Q 386.55 411.65 388.59 409.33&#10;  Q 390.52 407.14 392.78 405.17&#10;  Q 393.90 404.20 395.11 404.28&#10;  Q 395.52 404.31 395.81 404.02&#10;  Q 397.33 402.51 399.23 402.60&#10;  Q 399.75 402.62 400.10 402.24&#10;  Q 401.30 400.97 402.95 401.27&#10;  Q 403.60 401.40 403.90 400.81&#10;  Q 404.66 399.29 406.07 398.49&#10;  Q 406.44 398.28 406.44 397.85&#10;  Q 406.43 397.53 406.71 397.37&#10;  Q 408.31 396.46 409.80 397.35&#10;  Q 409.89 397.40 409.92 397.31&#10;  Q 409.97 397.16 409.98 397.04&#10;  Z"/>
</svg>